<svg width="137" height="137" viewBox="0 0 137 137" fill="none" xmlns="http://www.w3.org/2000/svg">
<g filter="url(#filter0_ii_23_159)">
<path d="M128.652 61.1619C128.652 52.882 123.54 45.8522 116.292 42.8553C115.914 42.703 115.597 42.4305 115.389 42.0799C115.182 41.7294 115.096 41.3203 115.144 40.9159C115.228 40.2885 115.272 39.6565 115.277 39.0236C115.277 28.0208 106.286 19.1029 95.1894 19.1029C91.225 19.1029 87.5945 20.2717 84.4991 22.2539C84.0442 22.5338 83.4983 22.626 82.9766 22.5109C82.455 22.3959 81.9985 22.0827 81.7035 21.6374C80.2676 19.4405 78.306 17.6368 75.9966 16.3898C73.6873 15.1428 71.1032 14.492 68.4787 14.4963C62.9687 14.4963 58.118 17.3219 55.331 21.586C55.0379 22.0333 54.5826 22.3493 54.0611 22.4675C53.5396 22.5857 52.9926 22.4969 52.5353 22.2197C49.3499 20.1671 45.643 19.0706 41.8536 19.0601C30.7566 19.0601 21.766 27.9737 21.766 38.9808C21.766 39.623 21.8173 40.2523 21.8944 40.8688C21.9429 41.2738 21.8573 41.6835 21.6509 42.0353C21.4445 42.3871 21.1285 42.6616 20.7513 42.8168C13.4646 45.8479 8.34424 52.8777 8.34424 61.1619C8.34424 69.4376 13.4603 76.4674 20.7085 79.4643C21.4791 79.7854 21.9629 80.5774 21.8559 81.4037C21.7723 82.0311 21.7279 82.6631 21.7231 83.296C21.7231 94.2988 30.7138 103.217 41.8108 103.217C45.7709 103.217 49.4014 102.052 52.4968 100.07C52.9532 99.7913 53.4998 99.7003 54.0218 99.8161C54.5439 99.9318 55.0008 100.245 55.2967 100.691C56.7256 102.871 58.675 104.661 60.969 105.898C63.263 107.136 65.8292 107.783 68.4359 107.78C73.9458 107.78 78.7965 104.955 81.5836 100.691C81.8767 100.243 82.3319 99.9274 82.8534 99.8092C83.3749 99.691 83.922 99.7799 84.3792 100.057C87.5646 102.11 91.2716 103.206 95.061 103.217C106.158 103.217 115.149 94.3031 115.149 83.296C115.149 82.6538 115.097 82.0287 115.02 81.4122C114.973 81.0057 115.06 80.5948 115.269 80.2429C115.478 79.8909 115.796 79.6173 116.176 79.4643C123.497 76.4674 128.656 69.4376 128.656 61.1619H128.652Z" fill="url(#paint0_radial_23_159)"/>
<path d="M128.652 61.1619C128.652 52.882 123.54 45.8522 116.292 42.8553C115.914 42.703 115.597 42.4305 115.389 42.0799C115.182 41.7294 115.096 41.3203 115.144 40.9159C115.228 40.2885 115.272 39.6565 115.277 39.0236C115.277 28.0208 106.286 19.1029 95.1894 19.1029C91.225 19.1029 87.5945 20.2717 84.4991 22.2539C84.0442 22.5338 83.4983 22.626 82.9766 22.5109C82.455 22.3959 81.9985 22.0827 81.7035 21.6374C80.2676 19.4405 78.306 17.6368 75.9966 16.3898C73.6873 15.1428 71.1032 14.492 68.4787 14.4963C62.9687 14.4963 58.118 17.3219 55.331 21.586C55.0379 22.0333 54.5826 22.3493 54.0611 22.4675C53.5396 22.5857 52.9926 22.4969 52.5353 22.2197C49.3499 20.1671 45.643 19.0706 41.8536 19.0601C30.7566 19.0601 21.766 27.9737 21.766 38.9808C21.766 39.623 21.8173 40.2523 21.8944 40.8688C21.9429 41.2738 21.8573 41.6835 21.6509 42.0353C21.4445 42.3871 21.1285 42.6616 20.7513 42.8168C13.4646 45.8479 8.34424 52.8777 8.34424 61.1619C8.34424 69.4376 13.4603 76.4674 20.7085 79.4643C21.4791 79.7854 21.9629 80.5774 21.8559 81.4037C21.7723 82.0311 21.7279 82.6631 21.7231 83.296C21.7231 94.2988 30.7138 103.217 41.8108 103.217C45.7709 103.217 49.4014 102.052 52.4968 100.07C52.9532 99.7913 53.4998 99.7003 54.0218 99.8161C54.5439 99.9318 55.0008 100.245 55.2967 100.691C56.7256 102.871 58.675 104.661 60.969 105.898C63.263 107.136 65.8292 107.783 68.4359 107.78C73.9458 107.78 78.7965 104.955 81.5836 100.691C81.8767 100.243 82.3319 99.9274 82.8534 99.8092C83.3749 99.691 83.922 99.7799 84.3792 100.057C87.5646 102.11 91.2716 103.206 95.061 103.217C106.158 103.217 115.149 94.3031 115.149 83.296C115.149 82.6538 115.097 82.0287 115.02 81.4122C114.973 81.0057 115.06 80.5948 115.269 80.2429C115.478 79.8909 115.796 79.6173 116.176 79.4643C123.497 76.4674 128.656 69.4376 128.656 61.1619H128.652Z" fill="url(#paint1_radial_23_159)"/>
<path d="M128.652 61.1619C128.652 52.882 123.54 45.8522 116.292 42.8553C115.914 42.703 115.597 42.4305 115.389 42.0799C115.182 41.7294 115.096 41.3203 115.144 40.9159C115.228 40.2885 115.272 39.6565 115.277 39.0236C115.277 28.0208 106.286 19.1029 95.1894 19.1029C91.225 19.1029 87.5945 20.2717 84.4991 22.2539C84.0442 22.5338 83.4983 22.626 82.9766 22.5109C82.455 22.3959 81.9985 22.0827 81.7035 21.6374C80.2676 19.4405 78.306 17.6368 75.9966 16.3898C73.6873 15.1428 71.1032 14.492 68.4787 14.4963C62.9687 14.4963 58.118 17.3219 55.331 21.586C55.0379 22.0333 54.5826 22.3493 54.0611 22.4675C53.5396 22.5857 52.9926 22.4969 52.5353 22.2197C49.3499 20.1671 45.643 19.0706 41.8536 19.0601C30.7566 19.0601 21.766 27.9737 21.766 38.9808C21.766 39.623 21.8173 40.2523 21.8944 40.8688C21.9429 41.2738 21.8573 41.6835 21.6509 42.0353C21.4445 42.3871 21.1285 42.6616 20.7513 42.8168C13.4646 45.8479 8.34424 52.8777 8.34424 61.1619C8.34424 69.4376 13.4603 76.4674 20.7085 79.4643C21.4791 79.7854 21.9629 80.5774 21.8559 81.4037C21.7723 82.0311 21.7279 82.6631 21.7231 83.296C21.7231 94.2988 30.7138 103.217 41.8108 103.217C45.7709 103.217 49.4014 102.052 52.4968 100.07C52.9532 99.7913 53.4998 99.7003 54.0218 99.8161C54.5439 99.9318 55.0008 100.245 55.2967 100.691C56.7256 102.871 58.675 104.661 60.969 105.898C63.263 107.136 65.8292 107.783 68.4359 107.78C73.9458 107.78 78.7965 104.955 81.5836 100.691C81.8767 100.243 82.3319 99.9274 82.8534 99.8092C83.3749 99.691 83.922 99.7799 84.3792 100.057C87.5646 102.11 91.2716 103.206 95.061 103.217C106.158 103.217 115.149 94.3031 115.149 83.296C115.149 82.6538 115.097 82.0287 115.02 81.4122C114.973 81.0057 115.06 80.5948 115.269 80.2429C115.478 79.8909 115.796 79.6173 116.176 79.4643C123.497 76.4674 128.656 69.4376 128.656 61.1619H128.652Z" fill="url(#paint2_radial_23_159)"/>
<path d="M128.652 61.1619C128.652 52.882 123.54 45.8522 116.292 42.8553C115.914 42.703 115.597 42.4305 115.389 42.0799C115.182 41.7294 115.096 41.3203 115.144 40.9159C115.228 40.2885 115.272 39.6565 115.277 39.0236C115.277 28.0208 106.286 19.1029 95.1894 19.1029C91.225 19.1029 87.5945 20.2717 84.4991 22.2539C84.0442 22.5338 83.4983 22.626 82.9766 22.5109C82.455 22.3959 81.9985 22.0827 81.7035 21.6374C80.2676 19.4405 78.306 17.6368 75.9966 16.3898C73.6873 15.1428 71.1032 14.492 68.4787 14.4963C62.9687 14.4963 58.118 17.3219 55.331 21.586C55.0379 22.0333 54.5826 22.3493 54.0611 22.4675C53.5396 22.5857 52.9926 22.4969 52.5353 22.2197C49.3499 20.1671 45.643 19.0706 41.8536 19.0601C30.7566 19.0601 21.766 27.9737 21.766 38.9808C21.766 39.623 21.8173 40.2523 21.8944 40.8688C21.9429 41.2738 21.8573 41.6835 21.6509 42.0353C21.4445 42.3871 21.1285 42.6616 20.7513 42.8168C13.4646 45.8479 8.34424 52.8777 8.34424 61.1619C8.34424 69.4376 13.4603 76.4674 20.7085 79.4643C21.4791 79.7854 21.9629 80.5774 21.8559 81.4037C21.7723 82.0311 21.7279 82.6631 21.7231 83.296C21.7231 94.2988 30.7138 103.217 41.8108 103.217C45.7709 103.217 49.4014 102.052 52.4968 100.07C52.9532 99.7913 53.4998 99.7003 54.0218 99.8161C54.5439 99.9318 55.0008 100.245 55.2967 100.691C56.7256 102.871 58.675 104.661 60.969 105.898C63.263 107.136 65.8292 107.783 68.4359 107.78C73.9458 107.78 78.7965 104.955 81.5836 100.691C81.8767 100.243 82.3319 99.9274 82.8534 99.8092C83.3749 99.691 83.922 99.7799 84.3792 100.057C87.5646 102.11 91.2716 103.206 95.061 103.217C106.158 103.217 115.149 94.3031 115.149 83.296C115.149 82.6538 115.097 82.0287 115.02 81.4122C114.973 81.0057 115.06 80.5948 115.269 80.2429C115.478 79.8909 115.796 79.6173 116.176 79.4643C123.497 76.4674 128.656 69.4376 128.656 61.1619H128.652Z" fill="url(#paint3_linear_23_159)"/>
<path d="M128.652 61.1619C128.652 52.882 123.54 45.8522 116.292 42.8553C115.914 42.703 115.597 42.4305 115.389 42.0799C115.182 41.7294 115.096 41.3203 115.144 40.9159C115.228 40.2885 115.272 39.6565 115.277 39.0236C115.277 28.0208 106.286 19.1029 95.1894 19.1029C91.225 19.1029 87.5945 20.2717 84.4991 22.2539C84.0442 22.5338 83.4983 22.626 82.9766 22.5109C82.455 22.3959 81.9985 22.0827 81.7035 21.6374C80.2676 19.4405 78.306 17.6368 75.9966 16.3898C73.6873 15.1428 71.1032 14.492 68.4787 14.4963C62.9687 14.4963 58.118 17.3219 55.331 21.586C55.0379 22.0333 54.5826 22.3493 54.0611 22.4675C53.5396 22.5857 52.9926 22.4969 52.5353 22.2197C49.3499 20.1671 45.643 19.0706 41.8536 19.0601C30.7566 19.0601 21.766 27.9737 21.766 38.9808C21.766 39.623 21.8173 40.2523 21.8944 40.8688C21.9429 41.2738 21.8573 41.6835 21.6509 42.0353C21.4445 42.3871 21.1285 42.6616 20.7513 42.8168C13.4646 45.8479 8.34424 52.8777 8.34424 61.1619C8.34424 69.4376 13.4603 76.4674 20.7085 79.4643C21.4791 79.7854 21.9629 80.5774 21.8559 81.4037C21.7723 82.0311 21.7279 82.6631 21.7231 83.296C21.7231 94.2988 30.7138 103.217 41.8108 103.217C45.7709 103.217 49.4014 102.052 52.4968 100.07C52.9532 99.7913 53.4998 99.7003 54.0218 99.8161C54.5439 99.9318 55.0008 100.245 55.2967 100.691C56.7256 102.871 58.675 104.661 60.969 105.898C63.263 107.136 65.8292 107.783 68.4359 107.78C73.9458 107.78 78.7965 104.955 81.5836 100.691C81.8767 100.243 82.3319 99.9274 82.8534 99.8092C83.3749 99.691 83.922 99.7799 84.3792 100.057C87.5646 102.11 91.2716 103.206 95.061 103.217C106.158 103.217 115.149 94.3031 115.149 83.296C115.149 82.6538 115.097 82.0287 115.02 81.4122C114.973 81.0057 115.06 80.5948 115.269 80.2429C115.478 79.8909 115.796 79.6173 116.176 79.4643C123.497 76.4674 128.656 69.4376 128.656 61.1619H128.652Z" fill="url(#paint4_radial_23_159)"/>
</g>
<g filter="url(#filter1_i_23_159)">
<path d="M20.122 125.441C23.182 125.441 26.1167 124.225 28.2805 122.061C30.4443 119.897 31.6599 116.963 31.6599 113.903C31.6599 110.843 30.4443 107.908 28.2805 105.744C26.1167 103.58 23.182 102.365 20.122 102.365C17.0619 102.365 14.1272 103.58 11.9634 105.744C9.79959 107.908 8.58398 110.843 8.58398 113.903C8.58398 116.963 9.79959 119.897 11.9634 122.061C14.1272 124.225 17.0619 125.441 20.122 125.441Z" fill="url(#paint5_radial_23_159)"/>
<path d="M20.122 125.441C23.182 125.441 26.1167 124.225 28.2805 122.061C30.4443 119.897 31.6599 116.963 31.6599 113.903C31.6599 110.843 30.4443 107.908 28.2805 105.744C26.1167 103.58 23.182 102.365 20.122 102.365C17.0619 102.365 14.1272 103.58 11.9634 105.744C9.79959 107.908 8.58398 110.843 8.58398 113.903C8.58398 116.963 9.79959 119.897 11.9634 122.061C14.1272 124.225 17.0619 125.441 20.122 125.441Z" fill="url(#paint6_radial_23_159)"/>
<path d="M20.122 125.441C23.182 125.441 26.1167 124.225 28.2805 122.061C30.4443 119.897 31.6599 116.963 31.6599 113.903C31.6599 110.843 30.4443 107.908 28.2805 105.744C26.1167 103.58 23.182 102.365 20.122 102.365C17.0619 102.365 14.1272 103.58 11.9634 105.744C9.79959 107.908 8.58398 110.843 8.58398 113.903C8.58398 116.963 9.79959 119.897 11.9634 122.061C14.1272 124.225 17.0619 125.441 20.122 125.441Z" fill="url(#paint7_radial_23_159)"/>
<path d="M20.122 125.441C23.182 125.441 26.1167 124.225 28.2805 122.061C30.4443 119.897 31.6599 116.963 31.6599 113.903C31.6599 110.843 30.4443 107.908 28.2805 105.744C26.1167 103.58 23.182 102.365 20.122 102.365C17.0619 102.365 14.1272 103.58 11.9634 105.744C9.79959 107.908 8.58398 110.843 8.58398 113.903C8.58398 116.963 9.79959 119.897 11.9634 122.061C14.1272 124.225 17.0619 125.441 20.122 125.441Z" fill="url(#paint8_linear_23_159)"/>
<path d="M20.122 125.441C23.182 125.441 26.1167 124.225 28.2805 122.061C30.4443 119.897 31.6599 116.963 31.6599 113.903C31.6599 110.843 30.4443 107.908 28.2805 105.744C26.1167 103.58 23.182 102.365 20.122 102.365C17.0619 102.365 14.1272 103.58 11.9634 105.744C9.79959 107.908 8.58398 110.843 8.58398 113.903C8.58398 116.963 9.79959 119.897 11.9634 122.061C14.1272 124.225 17.0619 125.441 20.122 125.441Z" fill="url(#paint9_radial_23_159)"/>
</g>
<g filter="url(#filter2_f_23_159)">
<path d="M36.6649 53.126L24.6046 36.8744L23.5471 43.0265L18.4824 45.1971L36.6649 53.126Z" fill="url(#paint10_linear_23_159)" fill-opacity="0.6"/>
</g>
<g filter="url(#filter3_f_23_159)">
<path d="M103.675 27.1345C112.22 30.4268 112.426 39.4046 111.467 43.4889L98.3359 49.2686L103.675 27.1345Z" fill="url(#paint11_linear_23_159)"/>
</g>
<g filter="url(#filter4_f_23_159)">
<path d="M109.356 76.416C115.136 83.8654 109.926 93.3783 106.458 95.4333L89.2173 68.8467L109.356 76.416Z" fill="url(#paint12_linear_23_159)"/>
</g>
<g filter="url(#filter5_f_23_159)">
<path d="M53.1732 26.4667C57.797 31.2702 57.4117 39.2933 56.671 42.2645L37.5381 23.7909C40.8261 22.4551 48.5452 21.6588 53.1732 26.4667Z" fill="#FAFAFC" fill-opacity="0.25"/>
</g>
<g filter="url(#filter6_f_23_159)">
<path d="M78.9805 41.2584L82.5382 25.1866C90.4927 21.0124 94.7783 21.5133 96.4993 21.5133L78.9805 41.2584Z" fill="#E6E4EC" fill-opacity="0.5"/>
</g>
<defs>
<filter id="filter0_ii_23_159" x="8.34424" y="14.1963" width="120.412" height="93.6842" filterUnits="userSpaceOnUse" color-interpolation-filters="sRGB">
<feFlood flood-opacity="0" result="BackgroundImageFix"/>
<feBlend mode="normal" in="SourceGraphic" in2="BackgroundImageFix" result="shape"/>
<feColorMatrix in="SourceAlpha" type="matrix" values="0 0 0 0 0 0 0 0 0 0 0 0 0 0 0 0 0 0 127 0" result="hardAlpha"/>
<feOffset dx="0.1" dy="0.1"/>
<feGaussianBlur stdDeviation="0.5"/>
<feComposite in2="hardAlpha" operator="arithmetic" k2="-1" k3="1"/>
<feColorMatrix type="matrix" values="0 0 0 0 0.716667 0 0 0 0 0.716667 0 0 0 0 0.716667 0 0 0 1 0"/>
<feBlend mode="normal" in2="shape" result="effect1_innerShadow_23_159"/>
<feColorMatrix in="SourceAlpha" type="matrix" values="0 0 0 0 0 0 0 0 0 0 0 0 0 0 0 0 0 0 127 0" result="hardAlpha"/>
<feOffset dy="-0.3"/>
<feGaussianBlur stdDeviation="0.25"/>
<feComposite in2="hardAlpha" operator="arithmetic" k2="-1" k3="1"/>
<feColorMatrix type="matrix" values="0 0 0 0 0.764633 0 0 0 0 0.670625 0 0 0 0 0.925 0 0 0 1 0"/>
<feBlend mode="normal" in2="effect1_innerShadow_23_159" result="effect2_innerShadow_23_159"/>
</filter>
<filter id="filter1_i_23_159" x="8.58398" y="102.365" width="23.1762" height="23.1759" filterUnits="userSpaceOnUse" color-interpolation-filters="sRGB">
<feFlood flood-opacity="0" result="BackgroundImageFix"/>
<feBlend mode="normal" in="SourceGraphic" in2="BackgroundImageFix" result="shape"/>
<feColorMatrix in="SourceAlpha" type="matrix" values="0 0 0 0 0 0 0 0 0 0 0 0 0 0 0 0 0 0 127 0" result="hardAlpha"/>
<feOffset dx="0.1" dy="0.1"/>
<feGaussianBlur stdDeviation="0.5"/>
<feComposite in2="hardAlpha" operator="arithmetic" k2="-1" k3="1"/>
<feColorMatrix type="matrix" values="0 0 0 0 0.758333 0 0 0 0 0.758333 0 0 0 0 0.758333 0 0 0 1 0"/>
<feBlend mode="normal" in2="shape" result="effect1_innerShadow_23_159"/>
</filter>
<filter id="filter2_f_23_159" x="17.8824" y="36.2744" width="19.3826" height="17.4516" filterUnits="userSpaceOnUse" color-interpolation-filters="sRGB">
<feFlood flood-opacity="0" result="BackgroundImageFix"/>
<feBlend mode="normal" in="SourceGraphic" in2="BackgroundImageFix" result="shape"/>
<feGaussianBlur stdDeviation="0.3" result="effect1_foregroundBlur_23_159"/>
</filter>
<filter id="filter3_f_23_159" x="97.3359" y="26.1345" width="15.5205" height="24.1341" filterUnits="userSpaceOnUse" color-interpolation-filters="sRGB">
<feFlood flood-opacity="0" result="BackgroundImageFix"/>
<feBlend mode="normal" in="SourceGraphic" in2="BackgroundImageFix" result="shape"/>
<feGaussianBlur stdDeviation="0.5" result="effect1_foregroundBlur_23_159"/>
</filter>
<filter id="filter4_f_23_159" x="87.2173" y="66.8467" width="26.729" height="30.5865" filterUnits="userSpaceOnUse" color-interpolation-filters="sRGB">
<feFlood flood-opacity="0" result="BackgroundImageFix"/>
<feBlend mode="normal" in="SourceGraphic" in2="BackgroundImageFix" result="shape"/>
<feGaussianBlur stdDeviation="1" result="effect1_foregroundBlur_23_159"/>
</filter>
<filter id="filter5_f_23_159" x="36.5381" y="21.7686" width="21.583" height="21.4959" filterUnits="userSpaceOnUse" color-interpolation-filters="sRGB">
<feFlood flood-opacity="0" result="BackgroundImageFix"/>
<feBlend mode="normal" in="SourceGraphic" in2="BackgroundImageFix" result="shape"/>
<feGaussianBlur stdDeviation="0.5" result="effect1_foregroundBlur_23_159"/>
</filter>
<filter id="filter6_f_23_159" x="77.9805" y="20.4945" width="19.519" height="21.7639" filterUnits="userSpaceOnUse" color-interpolation-filters="sRGB">
<feFlood flood-opacity="0" result="BackgroundImageFix"/>
<feBlend mode="normal" in="SourceGraphic" in2="BackgroundImageFix" result="shape"/>
<feGaussianBlur stdDeviation="0.5" result="effect1_foregroundBlur_23_159"/>
</filter>
<radialGradient id="paint0_radial_23_159" cx="0" cy="0" r="1" gradientUnits="userSpaceOnUse" gradientTransform="translate(88.14 30.8048) rotate(102.766) scale(67.3723 126.689)">
<stop stop-color="white"/>
<stop offset="1" stop-color="#E4DBF7"/>
</radialGradient>
<radialGradient id="paint1_radial_23_159" cx="0" cy="0" r="1" gradientUnits="userSpaceOnUse" gradientTransform="translate(89.4443 102.077) rotate(-165.279) scale(103.43 190.933)">
<stop offset="0.523" stop-color="#CECECE" stop-opacity="0"/>
<stop offset="1" stop-color="#CECECE"/>
</radialGradient>
<radialGradient id="paint2_radial_23_159" cx="0" cy="0" r="1" gradientUnits="userSpaceOnUse" gradientTransform="translate(90.9717 102.29) rotate(-131.228) scale(103.531 84.7645)">
<stop offset="0.753" stop-color="#CECECE" stop-opacity="0"/>
<stop offset="1" stop-color="#CECECE"/>
</radialGradient>
<linearGradient id="paint3_linear_23_159" x1="37.2084" y1="58.6103" x2="6.21218" y2="104.728" gradientUnits="userSpaceOnUse">
<stop offset="0.439" stop-color="#B6A8F2" stop-opacity="0"/>
<stop offset="0.966" stop-color="#B6A8F2"/>
</linearGradient>
<radialGradient id="paint4_radial_23_159" cx="0" cy="0" r="1" gradientUnits="userSpaceOnUse" gradientTransform="translate(80.3035 45.7237) rotate(117.537) scale(127.112 293.648)">
<stop offset="0.278" stop-color="#B6A8F2" stop-opacity="0"/>
<stop offset="1" stop-color="#B6A8F2"/>
</radialGradient>
<radialGradient id="paint5_radial_23_159" cx="0" cy="0" r="1" gradientUnits="userSpaceOnUse" gradientTransform="translate(31.6553 107.378) rotate(124.829) scale(18.6089 27.6712)">
<stop stop-color="white"/>
<stop offset="1" stop-color="#E0D8F0"/>
</radialGradient>
<radialGradient id="paint6_radial_23_159" cx="0" cy="0" r="1" gradientUnits="userSpaceOnUse" gradientTransform="translate(24.1344 124.024) rotate(-161.281) scale(20.2611 46.2568)">
<stop offset="0.523" stop-color="#CECECE" stop-opacity="0"/>
<stop offset="1" stop-color="#CECECE"/>
</radialGradient>
<radialGradient id="paint7_radial_23_159" cx="0" cy="0" r="1" gradientUnits="userSpaceOnUse" gradientTransform="translate(23.235 125.097) rotate(-128.192) scale(28.9216 31.8068)">
<stop offset="0.619" stop-color="#CECECE" stop-opacity="0"/>
<stop offset="1" stop-color="#CECECE"/>
</radialGradient>
<linearGradient id="paint8_linear_23_159" x1="14.1154" y1="113.278" x2="5.91677" y2="122.735" gradientUnits="userSpaceOnUse">
<stop offset="0.439" stop-color="#B6A8F2" stop-opacity="0"/>
<stop offset="0.966" stop-color="#B6A8F2"/>
</linearGradient>
<radialGradient id="paint9_radial_23_159" cx="0" cy="0" r="1" gradientUnits="userSpaceOnUse" gradientTransform="translate(22.3825 110.088) rotate(112.012) scale(30.0776 58.8959)">
<stop offset="0.278" stop-color="#B6A8F2" stop-opacity="0"/>
<stop offset="1" stop-color="#B6A8F2"/>
</radialGradient>
<linearGradient id="paint10_linear_23_159" x1="37.5383" y1="53.7297" x2="35.9456" y2="40.8602" gradientUnits="userSpaceOnUse">
<stop offset="0.516" stop-color="#CEC7D4" stop-opacity="0"/>
<stop offset="1" stop-color="#CEC7D5"/>
</linearGradient>
<linearGradient id="paint11_linear_23_159" x1="110.906" y1="46.1561" x2="92.9972" y2="37.5893" gradientUnits="userSpaceOnUse">
<stop stop-color="white"/>
<stop offset="1" stop-color="white" stop-opacity="0"/>
</linearGradient>
<linearGradient id="paint12_linear_23_159" x1="110.683" y1="95.6131" x2="97.7798" y2="72.3103" gradientUnits="userSpaceOnUse">
<stop stop-color="white" stop-opacity="0.6"/>
<stop offset="1" stop-color="white" stop-opacity="0"/>
</linearGradient>
</defs>
</svg>
