<svg width="80" height="53" viewBox="0 0 80 53" fill="none" xmlns="http://www.w3.org/2000/svg">
<path d="M20.5958 0C22.4569 0 23.88 0.709579 24.8653 3.22039L37.3234 34.8785C38.1445 36.9527 37.0171 38.6447 35.2107 39.1906C33.4044 39.7364 31.3791 39.5726 30.558 37.2256L27.3832 28.4923H13.5894L6.56547 47.1596C5.79915 49.2884 3.93807 49.5067 2.18646 48.9063C0.434859 48.3059 -0.49568 46.8867 0.270646 44.8671L16.381 3.22039C17.3115 0.709579 18.7895 0 20.5958 0ZM20.4863 8.73327C19.8842 10.9166 19.4463 12.2812 18.5705 14.792L15.6694 22.7065H25.3032L22.4569 14.792C21.5263 12.2266 21.0337 10.6437 20.4863 8.73327Z" fill="#7588DF"/>
<path d="M30.0058 34.8785C28.3718 29.1675 28.3196 28.3644 27.5024 25.497C28.8752 23.7766 28.7931 21.6169 30.558 22.7065C32.1922 23.6814 32.0843 26.7658 33.6604 29.12C33.6604 31.9873 32.2182 29.9719 35.7131 32.5314C37.7657 35.2605 43.6156 45.6022 54.8591 45.6022H56.2318C67.1484 45.6022 72.2809 42.4248 72.2809 35.7152C72.2809 31.9303 72.2809 32.5314 71.9768 29.8022C71.5915 26.3445 71.8627 26.3999 74.0294 25.7085C76.1961 25.0171 79.124 25.5606 79.5032 27.0731C80.1874 29.8022 79.9657 29.8022 79.9657 35.7152C79.9657 46.4964 72.7702 53 56.8855 53H54.2054C38.3207 53 32.1725 44.558 30.0058 34.8785Z" fill="#7588DF"/>
<path d="M52.1344 27.0731C52.1344 28.5804 50.909 29.8022 49.3975 29.8022C47.886 29.8022 46.6606 28.5804 46.6606 27.0731C46.6606 25.5658 47.886 24.344 49.3975 24.344C50.909 24.344 52.1344 25.5658 52.1344 27.0731Z" fill="#7588DF"/>
<path d="M63.0819 27.0731C63.0819 28.5804 61.8566 29.8022 60.345 29.8022C58.8335 29.8022 57.6081 28.5804 57.6081 27.0731C57.6081 25.5658 58.8335 24.344 60.345 24.344C61.8566 24.344 63.0819 25.5658 63.0819 27.0731Z" fill="#7588DF"/>
</svg>
