<svg width="37" height="37" viewBox="0 0 37 37" fill="none" xmlns="http://www.w3.org/2000/svg">
<path d="M2.28683 18.5L0.147769 6.1975C0.0529202 5.64741 0.108201 5.08191 0.307786 4.5606C0.507372 4.03929 0.843872 3.58146 1.28183 3.23535C1.7198 2.88924 2.243 2.66767 2.79633 2.59398C3.34966 2.52029 3.91262 2.59721 4.42589 2.81663L35.418 16.0996C35.8872 16.3015 36.2869 16.6364 36.5678 17.0631C36.8487 17.4897 36.9984 17.9892 36.9984 18.5C36.9984 19.0108 36.8487 19.5103 36.5678 19.937C36.2869 20.3636 35.8872 20.6985 35.418 20.9004L4.42358 34.1834C3.91008 34.4022 3.34711 34.4785 2.79389 34.4044C2.24067 34.3303 1.71765 34.1084 1.27985 33.7622C0.84204 33.416 0.505631 32.9582 0.306006 32.4369C0.106382 31.9157 0.0509203 31.3503 0.145456 30.8002L2.28683 18.5ZM3.68127 6.2715L5.50352 16.7656H16.7654C17.2254 16.7656 17.6665 16.9484 17.9918 17.2736C18.317 17.5989 18.4998 18.04 18.4998 18.5C18.4998 18.96 18.317 19.4011 17.9918 19.7264C17.6665 20.0516 17.2254 20.2344 16.7654 20.2344H5.50352L3.68127 30.7285L32.2106 18.5L3.68127 6.2715Z" fill="#C2C2C2"/>
</svg>
